<?xml version="1.0" encoding="UTF-8"?><svg id="b" xmlns="http://www.w3.org/2000/svg" viewBox="0 0 171.95 171.95"><g id="c"><rect width="171.95" height="171.95" rx="30.87" ry="30.87" fill="#002f35"/><polygon points="121.62 75.42 121.62 75.42 95.18 75.42 95.18 46.04 93.95 46.04 86.71 46.04 86.71 49.33 86.71 101.99 95.18 101.99 95.18 78.87 126.21 78.87 126.21 101.99 134.6 101.99 134.6 75.42 121.62 75.42" fill="#f04b4b"/><path d="M82.79,67.91c0,4.07-.88,7.7-2.63,10.9-1.75,3.2-4.21,5.67-7.38,7.4v.07l10.01,15.7h-12.96l-6.98-11.46c-.58-.89-1.39-1.34-2.45-1.34-.53.05-1.01.07-1.44.07h-11.02v12.72h-10.58v-55.94l21.67.07c4.22,0,8.16.96,11.81,2.86,3.65,1.91,6.55,4.5,8.71,7.77,2.16,3.27,3.24,6.82,3.24,10.64v.52ZM47.94,51.55v32.21h11.02c2.93,0,5.41-.79,7.45-2.38,2.04-1.59,3.5-3.53,4.39-5.84.89-2.31,1.33-4.82,1.33-7.55v-.67c0-2.73-.44-5.26-1.33-7.59-.89-2.33-2.35-4.28-4.39-5.84-2.04-1.56-4.52-2.34-7.45-2.34h-11.02Z" fill="#fff"/><path d="M52.06,120.43c0,.39-.06.76-.17,1.1-.11.34-.28.66-.52.94-.23.28-.52.52-.86.7l-.23.12,1.36,2.04.22.35h-1.6l-.07-.11-1.02-1.62c-.14-.22-.35-.33-.61-.32h-2.3v2.05h-1.3v-8.54h3.37c.65,0,1.26.14,1.83.43s1.03.67,1.38,1.17c.35.5.52,1.03.52,1.6v.1ZM48.33,123.21c.74,0,1.33-.26,1.77-.79.44-.53.65-1.19.65-1.98v-.11c0-.52-.09-.99-.28-1.4s-.47-.75-.84-1-.81-.37-1.3-.37h-2.08v5.65h2.08Z" fill="#fff"/><path d="M57.28,122.53v2.6h4.62l-.42.55h-5.48v-8.56h6.01l-.53.53h-4.2v2.87h4.56l-.42.53h-4.14v.65h-.01v.83h.01Z" fill="#fff"/><path d="M68.87,120.95c.3.11.58.22.83.34.25.11.51.25.78.42s.5.34.68.53c.18.18.34.4.46.65s.18.51.18.79c0,.39-.1.74-.29,1.03-.19.3-.45.53-.77.7-.32.17-.67.29-1.05.38s-.77.13-1.19.13c-.85,0-1.55-.18-2.11-.53-.56-.35-.92-.86-1.09-1.54l.83-.17c.26,1.14,1.12,1.72,2.59,1.72.54,0,.99-.15,1.37-.44s.56-.68.56-1.14c0-.15-.02-.29-.07-.41s-.12-.23-.24-.34c-.12-.11-.22-.2-.32-.28s-.26-.16-.49-.26c-.22-.1-.41-.17-.55-.23-.14-.06-.37-.14-.67-.24-.02-.02-.04-.03-.06-.03s-.04,0-.06-.02-.04-.02-.06-.02c-.04-.02-.1-.04-.17-.06-.25-.09-.44-.16-.56-.2s-.31-.12-.53-.22c-.23-.1-.41-.19-.53-.28s-.27-.19-.44-.32c-.16-.13-.29-.27-.37-.41-.08-.14-.16-.3-.22-.49-.06-.18-.1-.38-.1-.6,0-.23.06-.47.19-.73.12-.25.3-.49.53-.73.23-.23.55-.42.97-.58.41-.15.87-.23,1.39-.23,1.48,0,2.56.52,3.24,1.57l-.77.29c-.62-.94-1.43-1.42-2.45-1.42-.29,0-.55.03-.79.1-.24.07-.42.15-.56.26-.14.1-.26.22-.37.35s-.17.26-.2.4c-.03.13-.06.26-.07.37-.02.12,0,.21.02.29.02.1.06.2.11.29.05.09.1.17.16.23.05.07.13.14.25.21.11.07.2.13.28.17.07.04.19.1.37.17.17.07.3.12.4.16.09.04.25.09.48.17s.4.14.51.18Z" fill="#fff"/><path d="M74.29,117.1h7.66l-.18.53h-3v8.05h-1.3v-8.05h-3l-.18-.53Z" fill="#fff"/><path d="M88.35,116.95c.75,0,1.47.2,2.14.59.68.4,1.22.94,1.63,1.62.41.68.61,1.42.61,2.21s-.2,1.53-.61,2.22c-.41.69-.95,1.23-1.63,1.62-.68.39-1.39.59-2.14.59-.57,0-1.12-.12-1.65-.35-.53-.23-1-.55-1.39-.94-.4-.4-.71-.87-.95-1.42-.24-.55-.36-1.12-.36-1.72s.12-1.17.36-1.72c.24-.55.56-1.02.95-1.42.4-.39.86-.71,1.39-.94.53-.24,1.08-.35,1.65-.35ZM89.03,125.21c.59-.1,1.09-.38,1.51-.82.41-.44.69-.99.85-1.63.15-.64.16-1.32.04-2.02-.19-1.06-.64-1.9-1.34-2.51s-1.51-.84-2.42-.68c-.59.1-1.09.36-1.49.79-.4.43-.68.96-.82,1.59s-.15,1.3-.02,2.01c.19,1.07.63,1.92,1.32,2.56s1.48.87,2.39.72Z" fill="#fff"/><path d="M103.9,117.11h.18v8.57h-1.31v-3.54h-4.84v3.54h-1.32v-8.57h1.32v4.5h4.84v-4.5s1.13,0,1.13,0Z" fill="#fff"/><path d="M115.6,117.11v5.15c.01.96-.34,1.78-1.04,2.46-.7.68-1.54,1.02-2.53,1.02-.65,0-1.27-.15-1.85-.46-.59-.31-1.06-.73-1.42-1.27-.36-.54-.54-1.12-.54-1.75v-4.67s-.01-.07-.01-.1v-.09s0-.07,0-.1c0-.04,0-.07,0-.1v-.09h1.28v5.15c.01.79.24,1.46.71,1.99.46.54,1.07.8,1.82.8.49,0,.93-.07,1.31-.22.39-.15.71-.35.97-.6.26-.25.45-.55.58-.89.13-.34.2-.7.2-1.09v-5.15s.5,0,.5,0Z" fill="#fff"/><path d="M125.19,121.29c.5.17.92.45,1.28.84.36.39.53.82.53,1.3,0,.61-.27,1.14-.8,1.58-.54.45-1.14.67-1.82.67h-4.62v-8.6h3.6c.71,0,1.35.24,1.91.71.56.47.84,1.03.84,1.68,0,.52-.32,1.08-.95,1.67l-.11.11c.08.02.13.04.14.05ZM121.08,117.61v3.6h2.27c.46,0,.82-.17,1.07-.51s.38-.77.38-1.29-.13-.95-.38-1.29-.61-.51-1.07-.51h-2.27ZM124,125.21c.46,0,.85-.17,1.19-.52.34-.35.5-.76.5-1.25s-.17-.9-.5-1.25c-.34-.35-.73-.52-1.19-.52h-2.92v3.54h2.92Z" fill="#fff"/></g></svg>